HIERARCHY
ROOT Hips
{
	OFFSET 0.00 0.00 0.00
	CHANNELS 6 Xposition Yposition Zposition Xrotation Yrotation Zrotation
	JOINT Spine
	{
		OFFSET 0.00000 7.06766 0.00000
		CHANNELS 3 Xrotation Yrotation Zrotation
		JOINT Head
		{
			OFFSET 0.00000 15.03989 0.00000
			CHANNELS 3 Xrotation Yrotation Zrotation
			End Site
			{
				OFFSET 0.00000 4.52755 0.00000
			}
		}
		JOINT LeftShoulder
		{
			OFFSET 0.00000 10.53037 0.00000
			CHANNELS 3 Xrotation Yrotation Zrotation
			JOINT LeftArm
			{
				OFFSET 7.02886 0.00000 0.00000
				CHANNELS 3 Xrotation Yrotation Zrotation
				JOINT LeftForeArm
				{
					OFFSET 10.79770 0.00000 0.00000
					CHANNELS 3 Yrotation Zrotation Xrotation
					JOINT LeftHand
					{
						OFFSET 7.90744 0.00000 0.00000
						CHANNELS 3 Xrotation Yrotation Zrotation
						JOINT LeftHandThumb1
						{
							OFFSET 0.00000 0.00000 0.00000
							CHANNELS 3 Xrotation Zrotation Yrotation
							End Site
							{
								OFFSET 0.00000 0.00000 3.93700
							}
						}
						End Site
						{
							OFFSET 3.93700 0.00000 0.00000
						}
					}
				}
			}
		}
		JOINT RightShoulder
		{
			OFFSET 0.00000 10.53037 0.00000
			CHANNELS 3 Xrotation Yrotation Zrotation
			JOINT RightArm
			{
				OFFSET -7.02886 0.00000 0.00000
				CHANNELS 3 Xrotation Yrotation Zrotation
				JOINT RightForeArm
				{
					OFFSET -10.79770 0.00000 0.00000
					CHANNELS 3 Yrotation Zrotation Xrotation
					JOINT RightHand
					{
						OFFSET -7.90744 0.00000 0.00000
						CHANNELS 3 Xrotation Yrotation Zrotation
						JOINT RightHandThumb1
						{
							OFFSET 0.00000 0.00000 0.00000
							CHANNELS 3 Xrotation Zrotation Yrotation
							End Site
							{
								OFFSET 0.00000 0.00000 3.93700
							}
						}
						End Site
						{
							OFFSET -3.93700 0.00000 0.00000
						}
					}
				}
			}
		}
	}
	JOINT LeftUpLeg
	{
		OFFSET 4.01300 0.00000 0.00000
		CHANNELS 3 Xrotation Yrotation Zrotation
		JOINT LeftLeg
		{
			OFFSET 0.00000 -16.89976 0.00000
			CHANNELS 3 Xrotation Yrotation Zrotation
			JOINT LeftFoot
			{
				OFFSET 0.00000 -17.38918 0.00000
				CHANNELS 3 Xrotation Yrotation Zrotation
				JOINT LeftToeBase
				{
					OFFSET 0.00000 -1.27456 4.75673
					CHANNELS 3 Xrotation Yrotation Zrotation
					End Site
					{
						OFFSET 0.00000 0.00000 2.95275
					}
				}
			}
		}
	}
	JOINT RightUpLeg
	{
		OFFSET -4.01300 0.00000 0.00000
		CHANNELS 3 Xrotation Yrotation Zrotation
		JOINT RightLeg
		{
			OFFSET 0.00000 -16.89976 0.00000
			CHANNELS 3 Xrotation Yrotation Zrotation
			JOINT RightFoot
			{
				OFFSET 0.00000 -17.38918 0.00000
				CHANNELS 3 Xrotation Yrotation Zrotation
				JOINT RightToeBase
				{
					OFFSET 0.00000 -1.27456 4.75673
					CHANNELS 3 Xrotation Yrotation Zrotation
					End Site
					{
						OFFSET 0.00000 0.00000 2.95275
					}
				}
			}
		}
	}
}
MOTION
Frames: 14
Frame Time: 0.008333
 12.1154 33.1084 -21.6123 106.2041 25.3683 -94.5824 66.5963 -3.9937 11.6862 -32.0395 -8.7887 4.1609 -34.7674 -6.1791 17.9394 9.9058 36.7766 -28.2574 5.0085 0.0000 -36.5541 -0.2850 10.3911 1.5799 33.1476 -0.0000 26.2537 -0.8728 -10.7402 -12.4400 -36.1812 -49.3678 15.2860 10.3270 -0.0000 -14.4280 -5.7001 -19.4668 -16.6734 32.8623 0.0000 -24.3270 -40.5358 3.7756 -21.7638 -15.5980 0.0000 0.0000 -15.0759 17.5889 25.7688 -139.2052 -0.0000 -0.0000 -87.7906 9.0695 -8.9286 -1.3498 0.0000 0.0000 9.2392 -27.1478 -2.1895 28.1900 -0.0000 0.0000
 12.1196 33.1075 -21.6039 106.1809 25.2679 -94.5743 66.7056 -3.9602 11.7490 -32.1891 -8.7131 4.1185 -34.7175 -6.1451 17.9557 9.8590 36.8156 -28.2430 4.9897 0.0000 -36.6379 -0.2714 10.3610 1.5087 33.1476 -0.0000 26.2537 -0.9214 -10.6700 -12.4526 -36.1625 -49.3788 15.2170 10.4083 -0.0000 -14.4579 -5.6919 -19.4425 -16.6696 32.8623 0.0000 -24.3270 -40.6968 3.6757 -21.7170 -15.5502 -0.0000 -0.0000 -15.1248 17.6333 25.8500 -139.1214 0.0000 -0.0000 -87.8520 9.0475 -8.9126 -1.4255 -0.0000 -0.0000 9.2583 -27.1266 -2.1964 28.2401 0.0000 -0.0000
 12.1278 33.1050 -21.5955 106.1606 25.2032 -94.5710 66.8567 -3.9075 11.8106 -32.3627 -8.6615 4.0573 -34.7851 -6.1200 17.9643 9.9411 36.7660 -28.2553 4.9821 0.0000 -36.7159 -0.2580 10.4327 1.4246 33.1476 -0.0000 26.2537 -0.9703 -10.5709 -12.4693 -36.0509 -49.3910 15.1995 10.4108 -0.0000 -14.6281 -5.6323 -19.3157 -16.6020 32.8623 0.0000 -24.3270 -40.8056 3.5759 -21.6704 -15.5272 0.0000 0.0000 -15.1657 17.7099 25.9201 -139.1135 0.0000 -0.0000 -87.8648 9.0260 -8.8989 -1.5260 0.0000 0.0000 9.2550 -27.0966 -2.2442 28.3674 -0.0000 0.0000
 12.1399 33.1043 -21.5878 106.1113 25.1696 -94.5891 67.0401 -3.7183 11.8550 -32.5589 -8.7128 3.9954 -34.9157 -6.2654 17.9352 10.0278 36.8817 -28.2429 4.9293 0.0000 -36.7167 -0.2558 10.4460 1.4105 33.1476 -0.0000 26.2537 -1.0728 -10.5985 -12.4744 -36.0466 -49.3572 15.1116 10.4297 -0.0000 -14.5946 -5.6711 -19.2946 -16.7273 32.8623 0.0000 -24.3270 -40.8706 3.4720 -21.5810 -15.5246 -0.0000 -0.0000 -15.1880 17.7672 25.9922 -138.9996 0.0000 -0.0000 -87.8363 8.9152 -8.8562 -1.6535 -0.0000 -0.0000 9.3591 -27.1082 -2.0681 28.2833 0.0000 -0.0000
 12.1466 33.1035 -21.5796 106.0889 25.0957 -94.5955 67.1701 -3.6419 11.9259 -32.7080 -8.6725 3.9232 -34.9560 -6.2585 17.9262 10.0027 36.8709 -28.1766 4.9786 0.0000 -36.8295 -0.2476 10.3826 1.3733 33.1476 -0.0000 26.2537 -1.0314 -10.5939 -12.5081 -36.1301 -49.3453 15.0910 10.4239 -0.0000 -14.5669 -5.6396 -19.1689 -16.7380 32.8623 0.0000 -24.3270 -40.9886 3.3704 -21.5256 -15.4990 -0.0000 0.0000 -15.2083 17.8114 26.0606 -138.9682 0.0000 -0.0000 -87.8672 8.8246 -8.8381 -1.7443 -0.0000 0.0000 9.2651 -26.9633 -2.2882 28.5244 0.0000 -0.0000
 12.1525 33.1035 -21.5725 106.0734 25.0089 -94.5915 67.2844 -3.5833 11.9888 -32.9012 -8.5827 3.8910 -34.9942 -6.2440 17.9211 10.0057 36.8655 -28.1147 4.9419 0.0000 -36.8700 -0.2423 10.3957 1.3428 33.1476 -0.0000 26.2537 -1.0718 -10.5680 -12.5015 -36.1312 -49.2786 15.0376 10.4193 -0.0000 -14.5747 -5.6976 -19.2420 -16.8432 32.8623 0.0000 -24.3270 -41.1136 3.2741 -21.4898 -15.4841 0.0000 -0.0000 -15.2132 17.8812 26.1006 -138.9498 0.0000 -0.0000 -87.9180 8.7374 -8.8316 -1.8231 0.0000 0.0000 9.3722 -26.9415 -2.0757 28.2339 0.0000 -0.0000
 12.1565 33.1030 -21.5648 106.0879 24.9223 -94.5988 67.3748 -3.5118 12.0755 -33.0601 -8.5484 3.8256 -34.9967 -6.2484 17.8955 9.9444 36.8440 -28.0160 4.9785 0.0000 -37.0306 -0.2312 10.3714 1.2843 33.1476 -0.0000 26.2537 -1.1495 -10.5279 -12.5390 -36.1095 -49.2847 14.9509 10.4034 -0.0000 -14.5912 -5.6938 -19.2755 -16.8061 32.8623 0.0000 -24.3270 -41.2490 3.1607 -21.4720 -15.4525 0.0000 -0.0000 -15.2397 17.9607 26.1468 -138.9390 0.0000 -0.0000 -87.9639 8.6798 -8.8501 -1.9064 0.0000 0.0000 9.2804 -26.8226 -2.3301 28.7685 0.0000 -0.0000
 12.1588 33.1035 -21.5564 106.0908 24.8309 -94.6091 67.4516 -3.4527 12.1512 -33.2023 -8.5364 3.7736 -35.0540 -6.2955 17.8530 9.9581 36.8918 -27.8883 4.9651 0.0000 -37.1317 -0.2391 10.3125 1.3355 33.1476 -0.0000 26.2537 -1.2576 -10.4716 -12.5710 -36.1193 -49.2734 14.8245 10.3834 -0.0000 -14.5586 -5.7260 -19.2522 -16.9149 32.8623 0.0000 -24.3270 -41.3904 3.0646 -21.4442 -15.4187 0.0000 -0.0000 -15.2484 18.0311 26.2123 -138.9619 -0.0000 0.0000 -88.0112 8.6479 -8.8593 -1.9785 0.0000 0.0000 9.3841 -26.8589 -2.1008 28.3462 0.0000 -0.0000
 12.1608 33.1038 -21.5477 106.1017 24.7518 -94.6207 67.5536 -3.4168 12.2332 -33.4016 -8.4367 3.7299 -35.0013 -6.2186 17.8989 9.8598 36.8273 -27.8301 4.9878 0.0000 -37.2438 -0.2251 10.3492 1.2529 33.1476 -0.0000 26.2537 -1.2124 -10.4695 -12.5812 -36.1628 -49.2142 14.8293 10.3729 -0.0000 -14.7257 -5.7441 -19.2473 -16.9693 32.8623 0.0000 -24.3270 -41.5232 2.9537 -21.4206 -15.3886 -0.0000 -0.0000 -15.2715 18.1076 26.2698 -138.9462 0.0000 0.0000 -88.0411 8.6394 -8.8662 -2.0467 -0.0000 0.0000 9.3364 -26.8852 -2.2103 28.4490 -0.0000 -0.0000
 12.1618 33.1037 -21.5399 106.1206 24.6887 -94.6369 67.6459 -3.3654 12.3146 -33.5570 -8.4055 3.6983 -35.0894 -6.2284 17.9129 9.9626 36.7826 -27.7937 4.9647 0.0000 -37.4001 -0.2385 10.3991 1.3213 33.1476 -0.0000 26.2537 -1.2680 -10.4397 -12.6086 -36.2631 -49.2268 14.6841 10.4074 -0.0000 -14.7225 -5.7353 -19.2802 -16.9185 32.8623 0.0000 -24.3270 -41.6491 2.8307 -21.4010 -15.3409 -0.0000 -0.0000 -15.3033 18.1936 26.3478 -138.9067 -0.0000 0.0000 -88.0605 8.6004 -8.8942 -2.1294 -0.0000 -0.0000 9.3743 -26.8240 -2.1223 28.5011 -0.0000 0.0000
 12.1608 33.1041 -21.5325 106.1308 24.6127 -94.6390 67.7046 -3.3073 12.3827 -33.7288 -8.3718 3.6415 -35.0502 -6.1973 17.9244 9.8854 36.7106 -27.7164 5.0073 0.0000 -37.4666 -0.2263 10.3850 1.2550 33.1476 -0.0000 26.2537 -1.3434 -10.4130 -12.6498 -36.3378 -49.2628 14.5499 10.4390 -0.0000 -14.8036 -5.7397 -19.2593 -16.9475 32.8623 0.0000 -24.3270 -41.7888 2.7288 -21.3896 -15.2967 0.0000 -0.0000 -15.3403 18.2848 26.4236 -138.9177 -0.0000 0.0000 -88.0933 8.6074 -8.9073 -2.2020 -0.0000 -0.0000 9.3870 -26.8498 -2.1547 28.6455 -0.0000 -0.0000
 12.1593 33.1039 -21.5263 106.1493 24.5656 -94.6426 67.7768 -3.2555 12.4372 -33.8864 -8.3513 3.6478 -34.9999 -6.1874 17.9503 9.7495 36.7043 -27.6095 4.9909 0.0000 -37.4926 -0.2244 10.2552 1.2604 33.1476 -0.0000 26.2537 -1.3731 -10.3461 -12.6525 -36.4431 -49.3182 14.3650 10.5169 -0.0000 -14.8914 -5.7499 -19.3152 -16.9317 32.8623 0.0000 -24.3270 -41.8933 2.6380 -21.3901 -15.2554 0.0000 0.0000 -15.3816 18.3777 26.5033 -138.9678 -0.0000 0.0000 -88.0977 8.6095 -8.9344 -2.2750 0.0000 0.0000 9.4095 -26.8275 -2.1259 28.6060 0.0000 -0.0000
 12.1567 33.1033 -21.5200 106.1665 24.5290 -94.6590 67.8452 -3.2098 12.4949 -34.0184 -8.2972 3.6499 -35.0610 -6.2197 17.9539 9.7410 36.7254 -27.4720 4.9672 0.0000 -37.4986 -0.2089 10.2365 1.1753 33.1476 -0.0000 26.2537 -1.3752 -10.3190 -12.6533 -36.5258 -49.3389 14.2581 10.6228 -0.0000 -14.9393 -5.8040 -19.3878 -17.0248 32.8623 0.0000 -24.3270 -41.9948 2.5298 -21.3800 -15.2075 0.0000 -0.0000 -15.4472 18.4289 26.6155 -138.9819 0.0000 -0.0000 -88.0994 8.5989 -8.9570 -2.3423 -0.0000 0.0000 9.4512 -26.8060 -2.1343 28.6375 -0.0000 0.0000
 12.1547 33.1015 -21.5153 106.1813 24.5243 -94.6643 67.9312 -3.1529 12.5477 -34.1562 -8.2857 3.6098 -35.0473 -6.1943 17.9768 9.6836 36.6552 -27.3918 4.9630 0.0000 -37.5157 -0.2094 10.2385 1.1778 33.1476 -0.0000 26.2537 -1.4360 -10.2913 -12.6968 -36.5539 -49.3937 14.1693 10.7239 -0.0000 -14.9671 -5.8551 -19.4829 -17.0910 32.8623 0.0000 -24.3270 -42.0465 2.4508 -21.3790 -15.1758 0.0000 0.0000 -15.5210 18.5235 26.7620 -138.9552 0.0000 -0.0000 -88.0854 8.5456 -8.9796 -2.4150 0.0000 -0.0000 9.5031 -26.7669 -1.9909 28.9111 -0.0000 0.0000
